<?xml version="1.0" encoding="utf-8"?>
<svg version="1.1" id="Layer_1" x="0px" y="0px" viewBox="-48.863 -32.371 371.198 346.589" style="enable-background:new 0 0 280.096 280.096;" width="512" height="512" class="" xmlns="http://www.w3.org/2000/svg">
  <defs>
    <linearGradient id="gradient-0" gradientUnits="userSpaceOnUse" x1="149.12" y1="9.723" x2="149.12" y2="272.125">
      <stop offset="0" style="stop-color: rgba(222, 51, 35, 1)"/>
      <stop offset="1" style="stop-color: rgba(135, 30, 20, 1)"/>
    </linearGradient>
  </defs>
  <path style="fill:#CCCFD1;" d="M -10.56 62.688 C 6.584 62.688 153.413 71.014 153.413 71.014 L 153.413 123.519 C 153.413 123.519 30.358 123.519 13.399 123.519 C -3.561 123.519 -86.174 103.691 -74.535 90.81 C -59.024 73.644 -27.703 62.688 -10.56 62.688 Z" data-original="#CCCFD1" class="" transform="matrix(0.707106, -0.707108, 0.707108, 0.707106, -49.694743, 57.057499)"/>
  <path style="fill:#D9DCDD;" d="M 17.543 98.519 C 34.502 98.519 157.557 98.519 157.557 98.519 L 157.557 88.298 C 143.407 73.649 114.007 81.514 79.292 81.514 C 39.703 81.514 5.799 76.669 -5.008 94.713 C 4.451 97.093 12.782 98.519 17.543 98.519 Z" data-original="#D9DCDD" class="" transform="matrix(0.707106, -0.707108, 0.707108, 0.707106, -34.947755, 77.663826)"/>
  <path style="fill:#B7BABC;" d="M 72.792 66.296 C 104.75 66.296 134.048 66.296 134.048 66.296 L 134.048 13.791 C 134.048 13.791 105.967 10.501 72.792 6.764 L 72.792 66.296 Z" data-original="#B7BABC" transform="matrix(0.707106, -0.707107, 0.707107, 0.707106, 4.460417, 83.828413)"/>
  <path style="fill:#C2C4C5;" d="M 81.815 62.559 C 113.773 62.559 143.07 62.559 143.07 62.559 L 143.07 52.338 C 131.38 40.236 108.855 31.31 81.815 28.544 L 81.815 62.559 Z" data-original="#C2C4C5" transform="matrix(0.707106, -0.707108, 0.707108, 0.707106, 0.723934, 92.850717)"/>
  <path d="M 36.052 182.928 L 190.105 25.028 C 210.005 4.621 242.277 4.621 262.187 25.027 C 282.097 45.425 282.097 78.512 262.188 98.919 L 108.144 256.819 C 88.234 277.226 55.962 277.227 36.052 256.819 C 16.142 236.413 16.142 203.334 36.052 182.928 Z" data-original="#BF392C" class="" transform="matrix(0.71934, -0.694658, 0.694658, 0.71934, -56.041858, 143.138686)" style="fill: url(#gradient-0);"/>
  <path style="fill:#E4E5E5" d="M 162.153 250.05 L 168.576 243.627 C 172.12 240.092 172.12 234.334 168.576 230.772 C 165.032 227.237 159.283 227.237 155.73 230.772 L 149.307 237.195 L 142.884 230.772 C 139.34 227.237 133.582 227.237 130.038 230.772 C 126.485 234.325 126.485 240.083 130.038 243.627 L 136.461 250.05 L 130.038 256.473 C 126.485 260.026 126.485 265.767 130.038 269.311 C 133.582 272.865 139.34 272.865 142.884 269.311 L 149.307 262.905 L 155.73 269.311 C 159.274 272.865 165.023 272.865 168.576 269.311 C 172.12 265.776 172.12 260.026 168.576 256.474 L 162.153 250.05 Z" data-original="#E4E5E5" class="active-path" transform="matrix(0.707107, -0.707107, 0.707107, 0.707107, -133.081066, 178.811133)"/>
</svg>